<svg width="21" height="21" viewBox="0 0 21 21" fill="none" xmlns="http://www.w3.org/2000/svg">
<path d="M12.9999 17C12.3329 18 11.4999 18.5 10.4999 18.5C9.49995 18.5 8.66695 18 7.99995 17M15.5849 15.5H5.41495C5.12278 15.5001 4.83582 15.4227 4.5834 15.2756C4.33097 15.1285 4.12212 14.917 3.97821 14.6627C3.8343 14.4085 3.76048 14.1206 3.7643 13.8284C3.76812 13.5363 3.84944 13.2504 3.99995 13C4.98138 11.3643 5.49985 9.49257 5.49995 7.585V6.5C5.49995 5.43913 5.92137 4.42172 6.67152 3.67157C7.42166 2.92143 8.43908 2.5 9.49995 2.5H11.4999C12.5608 2.5 13.5782 2.92143 14.3284 3.67157C15.0785 4.42172 15.4999 5.43913 15.4999 6.5V7.585C15.4999 9.492 16.0179 11.365 16.9999 13C17.1505 13.2504 17.2318 13.5363 17.2356 13.8284C17.2394 14.1206 17.1656 14.4085 17.0217 14.6627C16.8778 14.917 16.6689 15.1285 16.4165 15.2756C16.1641 15.4227 15.8771 15.5001 15.5849 15.5V15.5Z" stroke="#E17493" stroke-width="1.5" stroke-linecap="round" stroke-linejoin="round"/>
</svg>
