<svg width="19" height="19" viewBox="0 0 19 19" fill="none" xmlns="http://www.w3.org/2000/svg">
<path d="M9.5 17.5C13.9183 17.5 17.5 13.9183 17.5 9.5C17.5 5.08172 13.9183 1.5 9.5 1.5C5.08172 1.5 1.5 5.08172 1.5 9.5C1.5 13.9183 5.08172 17.5 9.5 17.5Z" stroke="#E17493" stroke-width="1.5" stroke-linecap="round" stroke-linejoin="round"/>
<path d="M15.5 14.5C14.838 12.226 12.3 11.475 9.5 11.475C6.773 11.475 4.23 12.344 3.5 14.5" stroke="#E17493" stroke-width="1.5" stroke-linecap="round" stroke-linejoin="round"/>
<path fill-rule="evenodd" clip-rule="evenodd" d="M9.5 3.5C10.2956 3.5 11.0587 3.81607 11.6213 4.37868C12.1839 4.94129 12.5 5.70435 12.5 6.5V8.5C12.5 9.29565 12.1839 10.0587 11.6213 10.6213C11.0587 11.1839 10.2956 11.5 9.5 11.5C8.70435 11.5 7.94129 11.1839 7.37868 10.6213C6.81607 10.0587 6.5 9.29565 6.5 8.5V6.5C6.5 5.70435 6.81607 4.94129 7.37868 4.37868C7.94129 3.81607 8.70435 3.5 9.5 3.5V3.5Z" stroke="#E17493" stroke-width="1.5" stroke-linecap="round" stroke-linejoin="round"/>
</svg>
